PathFileType	4	(X/Y/Z)	14_coords_data.trc
DataRate	CameraRate	NumFrames	NumMarkers	Units	OrigDataRate	OrigDataStartFrame	OrigNumFrames
30.0	30.0	5	21	m	30.0	44	65
Frame#	Time	THUMB_TIP	THUMB_IP	THUMB_MCP	THUMB_CMC	INDEX_TIP	INDEX_DIP	INDEX_PIP	INDEX_MCP	MIDDLE_TIP	MIDDLE_DIP	MIDDLE_PIP	MIDDLE_MCP	RING_TIP	RING_DIP	RING_PIP	RING_MCP	PINKY_TIP	PINKY_DIP	PINKY_PIP	PINKY_MCP	WRIST
X1	Y1	Z1	X2	Y2	Z2	X3	Y3	Z3	X4	Y4	Z4	X5	Y5	Z5	X6	Y6	Z6	X7	Y7	Z7	X8	Y8	Z8	X9	Y9	Z9	X10	Y10	Z10	X11	Y11	Z11	X12	Y12	Z12	X13	Y13	Z13	X14	Y14	Z14	X15	Y15	Z15	X16	Y16	Z16	X17	Y17	Z17	X18	Y18	Z18	X19	Y19	Z19	X20	Y20	Z20	X21	Y21	Z21
43	1.4333333333333333	-0.000996136009693145	-0.05553250122070313	0.9853209838867187	-0.004406169891357422	-0.034449699401855466	1.0005800170898438	-0.016765499114990236	-0.018457599639892578	1.0213300170898438	-0.021680200576782226	0.012277600288391113	1.03575	0.027197099685668944	-0.012349699974060059	0.9173880004882813	0.00900504970550537	-0.00953221035003662	0.9281849975585937	-0.0068791799545288084	-0.006200260162353516	0.9433820190429687	-0.01777669906616211	0.000818933010101318	0.9781240234375	0.02974020004272461	0.025859100341796875	0.895864013671875	0.014194299697875976	0.025614599227905273	0.9144390258789062	-0.00265293002128601	0.024646099090576173	0.936968994140625	-0.017848899841308594	0.023723600387573242	0.9726959838867187	0.03200579833984375	0.04679899978637695	0.9091610107421875	0.017506099700927733	0.0472140998840332	0.9264669799804688	0.002014909982681274	0.0467244987487793	0.9465679931640625	-0.013050000190734863	0.043538299560546875	0.9773579711914062	0.029595300674438475	0.07921230316162109	0.9418590087890625	0.016175600051879884	0.07472190093994141	0.9546829833984375	0.004991549968719483	0.06976709747314454	0.96685498046875	-0.007543499946594238	0.06053620147705078	0.9872349853515625	-0.04416899871826172	0.03866239929199219	1.0463199462890624
44	1.4666666666666666	0.000527742028236389	-0.05599100112915039	0.9860180053710937	-0.003870039939880371	-0.034964698791503906	1.0010900268554688	-0.01675510025024414	-0.019029899597167967	1.0215999755859375	-0.021969699859619142	0.011847599983215332	1.035760009765625	0.02615019989013672	-0.012968099594116211	0.9172269897460937	0.007927499771118163	-0.010200499534606933	0.9279520263671875	-0.00800080966949463	-0.006927549839019775	0.9431630249023437	-0.018672800064086913	1.9048100337386004e-05	0.9780819702148438	0.02917580032348633	0.02500659942626953	0.896156982421875	0.013340399742126465	0.024881500244140625	0.91435400390625	-0.003822289943695068	0.023944400787353517	0.9367739868164062	-0.018855300903320313	0.02298430061340332	0.9725659790039063	0.031571500778198244	0.045532901763916014	0.9093720092773437	0.016743900299072266	0.04613930130004883	0.9263759765625	0.0009045190215110771	0.045873199462890625	0.9461489868164062	-0.014029600143432618	0.04287020111083984	0.9772509765625	0.02958650016784668	0.0775531997680664	0.9418200073242188	0.015910499572753905	0.07343430328369141	0.95435302734375	0.004410049915313721	0.06873100280761718	0.9663800048828125	-0.008503020286560059	0.059877498626708985	0.98710400390625	-0.04417660140991211	0.038081298828125	1.0465999755859374
45	1.5	0.00042138698697090105	-0.05653670120239258	0.9859639892578125	-0.004467770099639893	-0.035658199310302736	1.00102001953125	-0.01763599967956543	-0.019683700561523437	1.0215	-0.02259700012207031	0.011266799926757812	1.0355	0.02422279930114746	-0.01410140037536621	0.9165869750976563	0.006054240226745605	-0.011109800338745117	0.9274550170898438	-0.00974098014831543	-0.007681439876556397	0.942698974609375	-0.019958799362182617	-0.00059495598077774	0.9777529907226562	0.028370000839233397	0.023935300827026367	0.8961439819335938	0.012322799682617187	0.02398200035095215	0.9141859741210937	-0.005023789882659912	0.023185300827026366	0.9363839721679688	-0.020055700302124023	0.022281299591064452	0.9721610107421875	0.03170420074462891	0.04409090042114258	0.9097650146484375	0.016440900802612304	0.04506449890136719	0.9262769775390625	0.00021032099425792602	0.04500730133056641	0.9457260131835937	-0.015003000259399414	0.0421349983215332	0.9767949829101562	0.030066299438476562	0.07577860260009765	0.941927978515625	0.016032600402832033	0.07204900360107422	0.9541740112304687	0.004220170021057129	0.06762860107421875	0.9660549926757812	-0.009024359703063966	0.05911970138549805	0.9867009887695313	-0.04467259979248047	0.03764830017089844	1.0460999755859375
46	1.5333333333333334	0.00016803300380706702	-0.05670890045166015	0.9850120239257812	-0.0052840299606323245	-0.03606539916992187	1.0003300170898437	-0.018441999435424804	-0.020280500411987305	1.0209000244140625	-0.0234148006439209	0.010651700019836426	1.0351800537109375	0.022704500198364258	-0.014591099739074707	0.9162529907226562	0.004407010078430176	-0.011632499694824218	0.927010986328125	-0.011498499870300292	-0.00827731990814209	0.9421160278320313	-0.021588600158691407	-0.001280900001525879	0.9772750244140626	0.027945199966430665	0.022864999771118163	0.8966270141601562	0.011500200271606446	0.023159299850463867	0.9140889892578125	-0.006324719905853271	0.022487199783325196	0.9360180053710937	-0.02173889923095703	0.021605899810791016	0.971781982421875	0.03159720039367676	0.042660400390625	0.910177978515625	0.015880900382995604	0.04397219848632813	0.9261519775390625	-0.000982986986637115	0.0442041015625	0.9451959838867188	-0.01658679962158203	0.0414286994934082	0.97631201171875	0.030194299697875977	0.07393509674072266	0.9422620239257813	0.01578849983215332	0.07069589996337891	0.9541099853515626	0.003493669986724853	0.06655020141601563	0.965780029296875	-0.010254899978637695	0.05831610107421875	0.986072021484375	-0.04508860015869141	0.03694839859008789	1.046010009765625
47	1.5666666666666667	0.001006639957427978	-0.05678060150146484	0.9845850219726563	-0.005347839832305908	-0.03640140151977539	1.0000900268554687	-0.019017400741577147	-0.020953100204467775	1.02047998046875	-0.024358200073242187	0.009978489875793457	1.034780029296875	0.021557600021362304	-0.014905799865722656	0.9158740234375	0.003216949939727783	-0.012010700225830078	0.9264990234375	-0.012850099563598633	-0.008746999740600586	0.9417689819335937	-0.02286479949951172	-0.001978279948234558	0.9768740234375	0.027514299392700194	0.022329200744628908	0.8967680053710938	0.01070419979095459	0.022707000732421875	0.9138909912109375	-0.007354849815368652	0.021906400680541994	0.9355009765625	-0.022969999313354493	0.020971200942993165	0.9713359985351563	0.031232500076293947	0.04164250183105469	0.9104959716796875	0.01514550018310547	0.04310290145874023	0.9259769897460938	-0.002110450029373169	0.043510101318359376	0.9446729736328126	-0.017721099853515623	0.04071229934692383	0.9756329956054688	0.03027750015258789	0.07240519714355469	0.9428519897460937	0.015478099822998047	0.06954769897460937	0.9541740112304687	0.0028024499416351317	0.06559339904785157	0.9655170288085938	-0.011496399879455567	0.05764139938354492	0.9856129760742187	-0.046118099212646486	0.03639030075073242	1.045969970703125
